<svg xmlns="http://www.w3.org/2000/svg" width="111" height="32" viewBox="0 0 111 32" fill="none"><path d="M45.8554 16.9461H38.016C38.0765 18.2179 39.0388 19.3234 40.8611 19.3234C42.1714 19.3234 43.0103 18.6275 43.4199 17.9084L45.6297 18.1551C45.3225 19.5689 43.7074 21.5564 40.839 21.5564C37.646 21.5564 35.4967 19.1395 35.4967 16.1059C35.4967 13.2166 37.5436 10.7765 40.6761 10.7765C43.8691 10.7765 45.8554 13.3167 45.8554 16.2898V16.9461ZM38.0148 15.2041H43.3373C43.2547 14.0568 42.2528 13.0118 40.6772 13.0118C39.1424 13.0118 38.0777 14.0149 38.0148 15.2041Z" fill="#1A1A1A"></path><path d="M49.9898 16.1664L45.8542 10.9824H48.9658L51.5433 14.4466L54.1207 10.9824H57.2323L53.0967 16.1664L57.2323 21.3504H54.1207L51.5433 17.8863L48.9658 21.3504H45.8542L49.9898 16.1664Z" fill="#1A1A1A"></path><path d="M62.087 10.7765C63.8673 10.7765 65.2591 11.719 65.792 12.9083L65.9351 10.9825H68.3299V21.3528H65.9351L65.792 19.427C65.2602 20.615 63.8697 21.5587 62.087 21.5587C59.1185 21.5587 56.9495 19.1407 56.9495 16.1688C56.9484 13.1957 59.1185 10.7765 62.087 10.7765ZM62.5164 19.1779C64.2758 19.1779 65.5244 17.806 65.5244 16.1653C65.5244 14.5257 64.2758 13.1526 62.5164 13.1526C60.736 13.1526 59.4665 14.5246 59.4665 16.1653C59.4688 17.806 60.736 19.1779 62.5164 19.1779Z" fill="#1A1A1A"></path><path d="M72.9961 21.3516H70.4791V7.86621H72.9961V21.3516Z" fill="#1A1A1A"></path><path d="M74.2261 16.1665C74.2261 13.1945 76.5394 10.7765 79.7929 10.7765C83.0255 10.7765 85.3202 13.1934 85.3202 16.1665C85.3202 19.1384 83.0278 21.5564 79.7929 21.5564C76.5382 21.5553 74.2261 19.1384 74.2261 16.1665ZM82.8021 16.1665C82.8021 14.5269 81.5535 13.1538 79.7941 13.1538C78.0137 13.1538 76.7442 14.5257 76.7442 16.1665C76.7442 17.806 78.0149 19.1791 79.7941 19.1791C81.5523 19.1779 82.8021 17.806 82.8021 16.1665Z" fill="#1A1A1A"></path><path d="M85.9951 16.1665C85.9951 13.1945 88.3084 10.7765 91.5619 10.7765C94.7945 10.7765 97.088 13.1934 97.088 16.1665C97.088 19.1384 94.7945 21.5564 91.5619 21.5564C88.3072 21.5553 85.9951 19.1384 85.9951 16.1665ZM94.5699 16.1665C94.5699 14.5269 93.3213 13.1538 91.5619 13.1538C89.7815 13.1538 88.512 14.5257 88.512 16.1665C88.512 17.806 89.7827 19.1791 91.5619 19.1791C93.3225 19.1779 94.5699 17.806 94.5699 16.1665Z" fill="#1A1A1A"></path><path d="M98.2563 10.9836H100.63L100.773 12.9094C101.325 11.7202 102.699 10.7776 104.478 10.7776C107.447 10.7776 109.637 13.1945 109.637 16.1676C109.637 19.1395 107.447 21.5576 104.478 21.5576C102.698 21.5576 101.325 20.615 100.773 19.4258V24.1827H98.2563V10.9836ZM104.069 19.1779C105.83 19.1779 107.098 17.806 107.098 16.1653C107.098 14.5257 105.827 13.1526 104.069 13.1526C102.288 13.1526 101.061 14.5246 101.061 16.1653C101.059 17.806 102.288 19.1779 104.069 19.1779Z" fill="#1A1A1A"></path><path d="M22.1661 14.3058C21.4005 14.9714 21.2003 16.0221 21.5645 16.8891C21.6704 17.1404 21.6076 17.4336 21.4133 17.6268L21.397 17.6431C21.2038 17.8363 20.9141 17.9014 20.6615 17.7955C19.8423 17.4488 18.8591 17.6093 18.1911 18.2773C18.19 18.2784 18.19 18.2784 18.1865 18.2796C18.1853 18.2808 18.1853 18.2808 18.1842 18.2843C17.5162 18.9522 17.3568 19.9401 17.7047 20.7605C17.8095 21.0095 17.7443 21.2981 17.5546 21.4889L17.5383 21.5052C17.3475 21.696 17.0589 21.76 16.8087 21.6553C16.2351 21.4121 15.5799 21.4191 15.0086 21.6751C14.7829 21.7775 14.5175 21.7123 14.3407 21.5389L14.272 21.4703C14.0858 21.2841 14.0486 21.0048 14.1522 20.7616C14.5862 19.733 14.2278 18.4483 13.0735 17.8502C12.7674 17.6931 12.4242 17.6256 12.0809 17.6256H12.0797C11.7574 17.6256 11.4455 17.6931 11.1593 17.82C10.9335 17.9224 10.6682 17.8584 10.4914 17.685L10.4192 17.614C10.2458 17.4395 10.1807 17.1753 10.2831 16.9496C10.5437 16.3666 10.5449 15.6928 10.2854 15.111C10.1865 14.8864 10.2493 14.6211 10.4239 14.4466L10.5042 14.3663C10.6775 14.1917 10.9429 14.1301 11.1674 14.2301C11.4514 14.357 11.7621 14.4233 12.0809 14.4233H12.0821C12.4218 14.4233 12.7616 14.3581 13.0642 14.2057C13.8706 13.7926 14.3349 13.0165 14.3349 12.1705C14.3349 11.8691 14.2755 11.5771 14.1638 11.3059C14.0556 11.0453 14.1184 10.7462 14.3174 10.5461C14.5152 10.3483 14.8143 10.2843 15.0714 10.3901C15.3472 10.5053 15.6416 10.5624 15.9349 10.5624C16.2339 10.5624 16.5306 10.503 16.8111 10.3843C17.0659 10.2761 17.3615 10.3401 17.557 10.5368C17.7525 10.7323 17.8176 11.0278 17.7082 11.2838C17.4755 11.84 17.4732 12.4707 17.7024 13.0258C17.8106 13.2841 17.7455 13.5832 17.5465 13.781C17.3498 13.9788 17.0519 14.0451 16.7936 13.9369C15.9756 13.5971 14.9993 13.7577 14.336 14.4233C13.9113 14.8504 13.6786 15.4159 13.6786 16.0187C13.6786 16.6214 13.9136 17.1881 14.336 17.6152C14.7747 18.0539 15.3507 18.2749 15.9279 18.2749C16.505 18.2749 17.0822 18.055 17.5221 17.6152C18.1935 16.9426 18.3506 15.9442 17.9922 15.1203C17.8816 14.8667 17.9468 14.5723 18.1411 14.3768C18.3354 14.1813 18.631 14.1184 18.8847 14.2278C19.1698 14.3535 19.4781 14.4152 19.783 14.4152C20.3613 14.4152 20.9373 14.1952 21.3772 13.7554C21.8019 13.3283 22.037 12.7628 22.037 12.1612C22.037 11.9459 22.0067 11.7376 21.9485 11.5375C21.845 11.1744 21.6518 10.8416 21.3772 10.567C20.7058 9.89444 19.7109 9.73735 18.8893 10.0934C18.638 10.2016 18.3459 10.1376 18.1516 9.94331C17.9573 9.74898 17.8944 9.45458 18.0026 9.20324C18.3762 8.33749 18.183 7.2844 17.422 6.61298C16.5783 5.86942 15.2658 5.87756 14.4303 6.62927C13.9509 7.06098 13.6844 7.66375 13.6844 8.3084C13.6844 8.62258 13.7495 8.92746 13.8706 9.20673C13.9811 9.4604 13.9171 9.75596 13.7228 9.95029C13.5273 10.1458 13.2317 10.2086 12.9792 10.0981C12.7011 9.97706 12.3974 9.91189 12.0809 9.91189H12.0797C11.733 9.91189 11.385 9.97938 11.0767 10.14C9.92235 10.7451 9.5686 12.0402 10.0166 13.0677C10.1213 13.3097 10.0887 13.5901 9.89907 13.7775L9.83275 13.8438C9.65704 14.0195 9.38824 14.0824 9.16249 13.9776C8.87158 13.8438 8.55275 13.7728 8.22344 13.7728H8.22227C7.879 13.7728 7.53573 13.838 7.22969 13.9963C6.42911 14.4105 5.9718 15.1832 5.9718 16.028C5.9718 16.6319 6.20686 17.1974 6.62926 17.6245C7.06795 18.0632 7.64395 18.2843 8.22111 18.2843C8.53995 18.2843 8.85995 18.2168 9.15435 18.0818C9.38009 17.9782 9.65122 18.0411 9.82577 18.2179L9.88627 18.2784C10.0725 18.4646 10.1097 18.7451 10.005 18.9871C9.56278 20.0157 9.91537 21.3062 11.0685 21.9101C11.3757 22.0707 11.7237 22.1382 12.0716 22.1382H12.0727C12.3997 22.1382 12.7151 22.0696 13.0048 21.9369C13.2329 21.8333 13.5017 21.8939 13.6762 22.0719L13.7356 22.1312C13.9113 22.3069 13.9741 22.5769 13.8706 22.8038C13.7379 23.0924 13.6693 23.4089 13.6693 23.7371C13.6693 24.341 13.9043 24.9065 14.3267 25.3336C14.7654 25.7723 15.3414 25.9933 15.9186 25.9933C16.4957 25.9933 17.0729 25.7734 17.5127 25.3336C18.1877 24.6587 18.3413 23.6603 17.9817 22.8352C17.8711 22.5851 17.9363 22.293 18.1306 22.0975C18.325 21.9032 18.617 21.8403 18.8672 21.9497C19.1546 22.0754 19.4618 22.1394 19.769 22.1394C20.3474 22.1394 20.9222 21.9195 21.3609 21.4796C21.3621 21.4784 21.3621 21.4784 21.3632 21.4773C21.3644 21.4761 21.3644 21.4761 21.3655 21.4749C22.037 20.8024 22.1941 19.804 21.8357 18.9801C21.7251 18.7264 21.7903 18.432 21.9846 18.2377C22.1789 18.0434 22.4745 17.9794 22.7282 18.0888C23.0133 18.2144 23.3181 18.2761 23.6265 18.2761C24.2048 18.2761 24.7808 18.0562 25.2207 17.6163C26.1155 16.7203 26.0992 15.253 25.1706 14.3791C24.3549 13.5901 23.0226 13.5599 22.1661 14.3058Z" fill="url(#paint0_linear_37_218361)"></path><path d="M23.6521 10.0108C24.0908 10.0108 24.5306 9.84321 24.8646 9.50808C25.5337 8.83899 25.5337 7.75099 24.8646 7.08074C24.1955 6.41165 23.1087 6.41165 22.4396 7.08074C22.1149 7.40539 21.938 7.83594 21.938 8.29441C21.938 8.75288 22.1172 9.18343 22.4396 9.50808C22.7735 9.84437 23.2134 10.0108 23.6521 10.0108Z" fill="url(#paint1_linear_37_218361)"></path><path d="M23.6276 22.0148C23.1692 22.0148 22.7398 22.194 22.4151 22.5175C22.0916 22.841 21.9136 23.2716 21.9136 23.7312C21.9136 24.1897 22.0928 24.6202 22.4151 24.9449C22.7491 25.2788 23.1878 25.4476 23.6265 25.4476C24.0652 25.4476 24.505 25.28 24.839 24.9449C25.5081 24.2758 25.5081 23.1878 24.8401 22.5175C24.5178 22.1952 24.0873 22.0148 23.6276 22.0148Z" fill="url(#paint2_linear_37_218361)"></path><path d="M7.01908 22.5164C6.69442 22.8399 6.51755 23.2704 6.51755 23.7301C6.51755 24.1886 6.69675 24.6191 7.01908 24.9438C7.35304 25.2777 7.79289 25.4464 8.23158 25.4464C8.67027 25.4464 9.11013 25.2789 9.44293 24.9438C10.112 24.2747 10.112 23.1867 9.44293 22.5164C8.77384 21.8473 7.68817 21.8473 7.01908 22.5164Z" fill="url(#paint3_linear_37_218361)"></path><path d="M8.2339 10.0329C8.67259 10.0329 9.11245 9.86532 9.44525 9.53019C10.1143 8.8611 10.1143 7.7731 9.44641 7.10285C9.12176 6.7782 8.69238 6.60016 8.2339 6.60016C7.77659 6.60016 7.34605 6.77936 7.02139 7.10285C6.69674 7.42634 6.51987 7.85689 6.51987 8.31652C6.51987 8.775 6.69907 9.20554 7.02139 9.53019C7.35536 9.86649 7.79405 10.0329 8.2339 10.0329Z" fill="url(#paint4_linear_37_218361)"></path><path d="M29.1596 14.2964C28.2135 14.2964 27.4432 15.0668 27.4432 16.014C27.4432 16.9612 28.2135 17.7315 29.1596 17.7315C30.1056 17.7315 30.8748 16.9612 30.8748 16.014C30.8748 15.0668 30.1056 14.2964 29.1596 14.2964Z" fill="url(#paint5_linear_37_218361)"></path><path d="M15.9756 27.5689C15.0319 27.5689 14.2615 28.3392 14.2615 29.2864C14.2615 30.2336 15.0295 31.0028 15.9756 31.0028C16.9216 31.0028 17.6919 30.2336 17.6919 29.2864C17.6908 28.3369 16.9204 27.5689 15.9756 27.5689Z" fill="url(#paint6_linear_37_218361)"></path><path d="M2.62285 14.2964C1.67681 14.2964 0.908813 15.0656 0.908813 16.0128C0.908813 16.96 1.67681 17.7303 2.62285 17.7303C3.56889 17.7303 4.33805 16.96 4.33805 16.0128C4.33805 15.0656 3.56772 14.2964 2.62285 14.2964Z" fill="url(#paint7_linear_37_218361)"></path><path d="M15.9081 4.42766C16.8541 4.42766 17.6233 3.65849 17.6233 2.71129C17.6221 1.76758 16.8541 0.996094 15.9081 0.996094C14.9644 0.996094 14.1952 1.76642 14.1952 2.71362C14.1941 3.66082 14.9621 4.42766 15.9081 4.42766Z" fill="url(#paint8_linear_37_218361)"></path><defs><linearGradient id="paint0_linear_37_218361" x1="4.70786" y1="4.79922" x2="22.7037" y2="22.795" gradientUnits="userSpaceOnUse"><stop stop-color="#2942EE"></stop><stop offset="1" stop-color="#008BFF"></stop></linearGradient><linearGradient id="paint1_linear_37_218361" x1="12.4324" y1="-2.92537" x2="30.4283" y2="15.0705" gradientUnits="userSpaceOnUse"><stop stop-color="#2942EE"></stop><stop offset="1" stop-color="#008BFF"></stop></linearGradient><linearGradient id="paint2_linear_37_218361" x1="4.7018" y1="4.80523" x2="22.6977" y2="22.8011" gradientUnits="userSpaceOnUse"><stop stop-color="#2942EE"></stop><stop offset="1" stop-color="#008BFF"></stop></linearGradient><linearGradient id="paint3_linear_37_218361" x1="-2.99611" y1="12.5032" x2="14.9998" y2="30.499" gradientUnits="userSpaceOnUse"><stop stop-color="#2942EE"></stop><stop offset="1" stop-color="#008BFF"></stop></linearGradient><linearGradient id="paint4_linear_37_218361" x1="4.71204" y1="4.79489" x2="22.7079" y2="22.7906" gradientUnits="userSpaceOnUse"><stop stop-color="#2942EE"></stop><stop offset="1" stop-color="#008BFF"></stop></linearGradient><linearGradient id="paint5_linear_37_218361" x1="11.3264" y1="-1.81934" x2="29.3221" y2="16.1764" gradientUnits="userSpaceOnUse"><stop stop-color="#2942EE"></stop><stop offset="1" stop-color="#008BFF"></stop></linearGradient><linearGradient id="paint6_linear_37_218361" x1="-1.90149" y1="11.4086" x2="16.0943" y2="29.4044" gradientUnits="userSpaceOnUse"><stop stop-color="#2942EE"></stop><stop offset="1" stop-color="#008BFF"></stop></linearGradient><linearGradient id="paint7_linear_37_218361" x1="-1.9414" y1="11.4484" x2="16.0545" y2="29.4442" gradientUnits="userSpaceOnUse"><stop stop-color="#2942EE"></stop><stop offset="1" stop-color="#008BFF"></stop></linearGradient><linearGradient id="paint8_linear_37_218361" x1="11.3507" y1="-1.84364" x2="29.3465" y2="16.1522" gradientUnits="userSpaceOnUse"><stop stop-color="#2942EE"></stop><stop offset="1" stop-color="#008BFF"></stop></linearGradient></defs></svg>